<svg width="34" height="31" viewBox="0 0 34 31" fill="none" xmlns="http://www.w3.org/2000/svg">
<g clip-path="url(#clip0_161_53)">
<path d="M25.5 0H8.5C7.37283 0 6.29183 0.408258 5.4948 1.13496C4.69777 1.86166 4.25 2.84729 4.25 3.875V27.125C4.25 28.1527 4.69777 29.1383 5.4948 29.865C6.29183 30.5917 7.37283 31 8.5 31H25.5C26.6272 31 27.7082 30.5917 28.5052 29.865C29.3022 29.1383 29.75 28.1527 29.75 27.125V3.875C29.75 2.84729 29.3022 1.86166 28.5052 1.13496C27.7082 0.408258 26.6272 0 25.5 0ZM10.625 7.75H23.375C23.6568 7.75 23.927 7.85206 24.1263 8.03374C24.3256 8.21542 24.4375 8.46182 24.4375 8.71875C24.4375 8.97568 24.3256 9.22208 24.1263 9.40376C23.927 9.58543 23.6568 9.6875 23.375 9.6875H10.625C10.3432 9.6875 10.073 9.58543 9.8737 9.40376C9.67444 9.22208 9.5625 8.97568 9.5625 8.71875C9.5625 8.46182 9.67444 8.21542 9.8737 8.03374C10.073 7.85206 10.3432 7.75 10.625 7.75ZM9.5625 12.5938C9.5625 12.3368 9.67444 12.0904 9.8737 11.9087C10.073 11.7271 10.3432 11.625 10.625 11.625H23.375C23.6568 11.625 23.927 11.7271 24.1263 11.9087C24.3256 12.0904 24.4375 12.3368 24.4375 12.5938C24.4375 12.8507 24.3256 13.0971 24.1263 13.2788C23.927 13.4604 23.6568 13.5625 23.375 13.5625H10.625C10.3432 13.5625 10.073 13.4604 9.8737 13.2788C9.67444 13.0971 9.5625 12.8507 9.5625 12.5938ZM10.625 15.5H23.375C23.6568 15.5 23.927 15.6021 24.1263 15.7837C24.3256 15.9654 24.4375 16.2118 24.4375 16.4688C24.4375 16.7257 24.3256 16.9721 24.1263 17.1538C23.927 17.3354 23.6568 17.4375 23.375 17.4375H10.625C10.3432 17.4375 10.073 17.3354 9.8737 17.1538C9.67444 16.9721 9.5625 16.7257 9.5625 16.4688C9.5625 16.2118 9.67444 15.9654 9.8737 15.7837C10.073 15.6021 10.3432 15.5 10.625 15.5ZM10.625 19.375H17C17.2818 19.375 17.552 19.4771 17.7513 19.6587C17.9506 19.8404 18.0625 20.0868 18.0625 20.3438C18.0625 20.6007 17.9506 20.8471 17.7513 21.0288C17.552 21.2104 17.2818 21.3125 17 21.3125H10.625C10.3432 21.3125 10.073 21.2104 9.8737 21.0288C9.67444 20.8471 9.5625 20.6007 9.5625 20.3438C9.5625 20.0868 9.67444 19.8404 9.8737 19.6587C10.073 19.4771 10.3432 19.375 10.625 19.375Z" fill="white"/>
</g>
<defs>
<clipPath id="clip0_161_53">
<rect width="34" height="31" fill="white"/>
</clipPath>
</defs>
</svg>
