<svg width="25" height="25" viewBox="0 0 25 25" fill="none" xmlns="http://www.w3.org/2000/svg">
<g clip-path="url(#clip0_30_187)">
<path d="M12.5 7.4281C11.8339 7.4281 11.1744 7.55929 10.5591 7.81417C9.94371 8.06906 9.38459 8.44265 8.91362 8.91362C8.44265 9.38459 8.06906 9.9437 7.81417 10.5591C7.55929 11.1744 7.4281 11.8339 7.4281 12.5C7.4281 13.166 7.55929 13.8255 7.81417 14.4409C8.06906 15.0562 8.44265 15.6154 8.91362 16.0863C9.38459 16.5573 9.94371 16.9309 10.5591 17.1858C11.1744 17.4407 11.8339 17.5719 12.5 17.5719C13.8451 17.5719 15.1352 17.0375 16.0863 16.0863C17.0375 15.1352 17.5719 13.8451 17.5719 12.5C17.5719 11.1548 17.0375 9.86478 16.0863 8.91362C15.1352 7.96246 13.8451 7.4281 12.5 7.4281ZM8.9906 12.5C8.9906 11.5692 9.36034 10.6766 10.0185 10.0185C10.6766 9.36034 11.5692 8.9906 12.5 8.9906C13.4307 8.9906 14.3233 9.36034 14.9815 10.0185C15.6396 10.6766 16.0094 11.5692 16.0094 12.5C16.0094 13.4307 15.6396 14.3233 14.9815 14.9815C14.3233 15.6396 13.4307 16.0094 12.5 16.0094C11.5692 16.0094 10.6766 15.6396 10.0185 14.9815C9.36034 14.3233 8.9906 13.4307 8.9906 12.5Z" fill="white"/>
<path d="M15.3067 2.09845C14.4833 -0.698425 10.5176 -0.698425 9.69419 2.09845L9.54731 2.59689C9.48981 2.79213 9.38934 2.97202 9.25328 3.12338C9.11722 3.27475 8.949 3.39375 8.76097 3.47166C8.57294 3.54957 8.36986 3.58441 8.16662 3.57363C7.96337 3.56286 7.76512 3.50674 7.58638 3.40939L7.13013 3.15939C4.56763 1.76564 1.76606 4.56876 3.16138 7.1297L3.40981 7.58595C3.50717 7.76469 3.56329 7.96295 3.57406 8.16619C3.58484 8.36944 3.54999 8.57252 3.47208 8.76055C3.39418 8.94858 3.27518 9.11679 3.12381 9.25285C2.97245 9.38892 2.79255 9.48938 2.59731 9.54689L2.09888 9.69376C-0.697998 10.5172 -0.697998 14.4828 2.09888 15.3063L2.59731 15.4531C2.79255 15.5106 2.97245 15.6111 3.12381 15.7472C3.27518 15.8832 3.39418 16.0515 3.47208 16.2395C3.54999 16.4275 3.58484 16.6306 3.57406 16.8338C3.56329 17.0371 3.50717 17.2353 3.40981 17.4141L3.15981 17.8703C1.76606 20.4328 4.56763 23.236 7.13013 21.8391L7.58638 21.5906C7.76512 21.4933 7.96337 21.4372 8.16662 21.4264C8.36986 21.4156 8.57294 21.4505 8.76097 21.5284C8.949 21.6063 9.11722 21.7253 9.25328 21.8766C9.38934 22.028 9.48981 22.2079 9.54731 22.4031L9.69419 22.9016C10.5176 25.6985 14.4833 25.6985 15.3067 22.9016L15.4536 22.4031C15.5111 22.2079 15.6115 22.028 15.7476 21.8766C15.8837 21.7253 16.0519 21.6063 16.2399 21.5284C16.4279 21.4505 16.631 21.4156 16.8343 21.4264C17.0375 21.4372 17.2358 21.4933 17.4145 21.5906L17.8708 21.8406C20.4333 23.236 23.2364 20.4313 21.8395 17.8703L21.5911 17.4141C21.4937 17.2353 21.4376 17.0371 21.4268 16.8338C21.416 16.6306 21.4509 16.4275 21.5288 16.2395C21.6067 16.0515 21.7257 15.8832 21.8771 15.7472C22.0284 15.6111 22.2083 15.5106 22.4036 15.4531L22.902 15.3063C25.6989 14.4828 25.6989 10.5172 22.902 9.69376L22.4036 9.54689C22.2083 9.48938 22.0284 9.38892 21.8771 9.25285C21.7257 9.11679 21.6067 8.94858 21.5288 8.76055C21.4509 8.57252 21.416 8.36944 21.4268 8.16619C21.4376 7.96295 21.4937 7.76469 21.5911 7.58595L21.8411 7.1297C23.2364 4.5672 20.4317 1.76564 17.8708 3.16095L17.4145 3.40939C17.2358 3.50674 17.0375 3.56286 16.8343 3.57363C16.631 3.58441 16.4279 3.54957 16.2399 3.47166C16.0519 3.39375 15.8837 3.27475 15.7476 3.12338C15.6115 2.97202 15.5111 2.79213 15.4536 2.59689L15.3067 2.09845ZM11.1926 2.54064C11.577 1.23595 13.4239 1.23595 13.8083 2.54064L13.9551 3.03908C14.0786 3.45796 14.2942 3.8439 14.5863 4.16861C14.8783 4.49331 15.2393 4.74855 15.6427 4.91561C16.0462 5.08266 16.482 5.15731 16.9181 5.13406C17.3542 5.11081 17.7795 4.99027 18.1629 4.78126L18.6176 4.53126C19.8114 3.88283 21.1176 5.18751 20.4676 6.38283L20.2192 6.83908C20.0105 7.22255 19.8903 7.64787 19.8673 8.08385C19.8443 8.51983 19.9191 8.95543 20.0863 9.35874C20.2535 9.76204 20.5088 10.1228 20.8335 10.4147C21.1582 10.7065 21.5441 10.922 21.9629 11.0453L22.4598 11.1922C23.7645 11.5766 23.7645 13.4235 22.4598 13.8078L21.9614 13.9547C21.5425 14.0782 21.1566 14.2938 20.8318 14.5858C20.5071 14.8779 20.2519 15.2388 20.0848 15.6423C19.9178 16.0458 19.8431 16.4816 19.8664 16.9176C19.8896 17.3537 20.0102 17.7791 20.2192 18.1625L20.4692 18.6172C21.1176 19.811 19.8129 21.1172 18.6176 20.4672L18.1629 20.2188C17.7794 20.0098 17.3539 19.8893 16.9178 19.8661C16.4816 19.843 16.0458 19.9178 15.6423 20.085C15.2388 20.2522 14.8778 20.5076 14.5859 20.8325C14.2939 21.1574 14.0784 21.5435 13.9551 21.9625L13.8083 22.4594C13.4239 23.7641 11.577 23.7641 11.1926 22.4594L11.0458 21.961C10.9222 21.5423 10.7066 21.1566 10.4147 20.832C10.1228 20.5075 9.76199 20.2523 9.35871 20.0853C8.95542 19.9183 8.51988 19.8436 8.08398 19.8667C7.64809 19.8897 7.22288 20.0101 6.8395 20.2188L6.38325 20.4688C5.1895 21.1172 3.88325 19.8125 4.53325 18.6172L4.78169 18.1625C4.99099 17.779 5.11177 17.3535 5.13517 16.9173C5.15857 16.481 5.08399 16.045 4.91691 15.6413C4.74984 15.2376 4.49449 14.8765 4.16962 14.5844C3.84476 14.2922 3.4586 14.0766 3.0395 13.9531L2.54106 13.8063C1.23638 13.4219 1.23638 11.575 2.54106 11.1906L3.0395 11.0438C3.45795 10.9202 3.84347 10.7046 4.16785 10.4128C4.49223 10.121 4.74726 9.76037 4.91427 9.35729C5.08129 8.95421 5.15606 8.51888 5.13312 8.08317C5.11018 7.64746 4.99011 7.22239 4.78169 6.83908L4.53169 6.38283C3.88325 5.18908 5.18794 3.88282 6.38325 4.53282L6.8395 4.78126C7.22288 4.98997 7.64809 5.11028 8.08398 5.13338C8.51988 5.15647 8.95542 5.08176 9.35871 4.91473C9.76199 4.74769 10.1228 4.49256 10.4147 4.16801C10.7066 3.84347 10.9222 3.45774 11.0458 3.03908L11.1926 2.54064Z" fill="white"/>
</g>
<defs>
<clipPath id="clip0_30_187">
<rect width="25" height="25" fill="white"/>
</clipPath>
</defs>
</svg>
