<svg width="46" height="47" viewBox="0 0 46 47" fill="none" xmlns="http://www.w3.org/2000/svg">
<path d="M19.0299 13.4294C19.1707 13.3735 19.3221 13.3445 19.4753 13.344C19.6284 13.3435 19.78 13.3715 19.9213 13.4264C20.0626 13.4813 20.1905 13.5619 20.2977 13.6636C20.4048 13.7652 20.4889 13.8858 20.5451 14.0182C20.6012 14.1506 20.6282 14.2921 20.6245 14.4343C20.6208 14.5766 20.5864 14.7167 20.5234 14.8464C20.4605 14.9761 20.3701 15.0927 20.2578 15.1894C20.1455 15.2861 20.0134 15.3609 19.8695 15.4094C19.1038 15.6897 18.4466 16.1778 17.9835 16.81C17.5204 17.4422 17.2727 18.1894 17.2728 18.9542V20.8065C17.2728 21.0888 17.3934 21.3596 17.6083 21.5592C17.8231 21.7588 18.1144 21.871 18.4182 21.871H27.5818C27.8856 21.871 28.1769 21.7588 28.3917 21.5592C28.6065 21.3596 28.7272 21.0888 28.7272 20.8065V19.0532C28.7273 18.2638 28.4693 17.4931 27.9874 16.8431C27.5054 16.1931 26.8223 15.6946 26.0286 15.4136C25.8837 15.3669 25.7504 15.2936 25.6366 15.1982C25.5228 15.1027 25.4307 14.9869 25.3659 14.8578C25.3011 14.7287 25.2649 14.5887 25.2594 14.4463C25.2538 14.3039 25.2791 14.162 25.3337 14.0288C25.3884 13.8956 25.4712 13.774 25.5773 13.6712C25.6834 13.5683 25.8107 13.4863 25.9515 13.43C26.0924 13.3737 26.2439 13.3443 26.3973 13.3434C26.5506 13.3426 26.7025 13.3704 26.8441 13.4251C28.0716 13.8596 29.128 14.6305 29.8734 15.6356C30.6188 16.6407 31.018 17.8325 31.0181 19.0532V20.8065C31.0181 21.6534 30.6561 22.4657 30.0116 23.0646C29.3672 23.6635 28.4931 24 27.5818 24H18.4182C17.5068 24 16.6328 23.6635 15.9884 23.0646C15.3439 22.4657 14.9819 21.6534 14.9819 20.8065V18.9542C14.982 17.7621 15.3682 16.5977 16.0902 15.6123C16.8121 14.627 17.8364 13.8663 19.0299 13.4294ZM23 2.70969C24.2152 2.70969 25.3806 3.1583 26.2398 3.95684C27.0991 4.75539 27.5818 5.83844 27.5818 6.96775V9.09678C27.5818 10.2261 27.0991 11.3091 26.2398 12.1077C25.3806 12.9062 24.2152 13.3548 23 13.3548C21.7848 13.3548 20.6194 12.9062 19.7602 12.1077C18.9009 11.3091 18.4182 10.2261 18.4182 9.09678V6.96775C18.4182 5.83844 18.9009 4.75539 19.7602 3.95684C20.6194 3.1583 21.7848 2.70969 23 2.70969ZM23 4.83872C22.3924 4.83872 21.8097 5.06303 21.3801 5.4623C20.9505 5.86157 20.7091 6.4031 20.7091 6.96775V9.09678C20.7091 9.66144 20.9505 10.203 21.3801 10.6022C21.8097 11.0015 22.3924 11.2258 23 11.2258C23.6076 11.2258 24.1903 11.0015 24.6199 10.6022C25.0495 10.203 25.2909 9.66144 25.2909 9.09678V6.96775C25.2909 6.4031 25.0495 5.86157 24.6199 5.4623C24.1903 5.06303 23.6076 4.83872 23 4.83872Z" fill="white"/>
<path d="M1.28534 41.4186C1.09334 41.4186 0.937344 41.3746 0.817344 41.2866C0.705344 41.1986 0.637344 41.0826 0.613344 40.9386C0.589344 40.7866 0.617344 40.6186 0.697344 40.4346L3.86534 33.4146C3.96934 33.1826 4.09334 33.0186 4.23734 32.9226C4.38934 32.8186 4.56134 32.7666 4.75334 32.7666C4.93734 32.7666 5.10134 32.8186 5.24534 32.9226C5.39734 33.0186 5.52534 33.1826 5.62934 33.4146L8.80934 40.4346C8.89734 40.6186 8.92934 40.7866 8.90534 40.9386C8.88134 41.0906 8.81334 41.2106 8.70134 41.2986C8.58934 41.3786 8.44134 41.4186 8.25734 41.4186C8.03334 41.4186 7.85734 41.3666 7.72934 41.2626C7.60934 41.1506 7.50134 40.9826 7.40534 40.7586L6.62534 38.9466L7.27334 39.3666H2.20934L2.85734 38.9466L2.08934 40.7586C1.98534 40.9906 1.87734 41.1586 1.76534 41.2626C1.65334 41.3666 1.49334 41.4186 1.28534 41.4186ZM4.72934 34.5306L3.04934 38.5266L2.73734 38.1426H6.74534L6.44534 38.5266L4.75334 34.5306H4.72934ZM12.6404 41.4426C12.0244 41.4426 11.4884 41.3186 11.0324 41.0706C10.5764 40.8146 10.2244 40.4546 9.97644 39.9906C9.72844 39.5266 9.60444 38.9826 9.60444 38.3586C9.60444 37.8866 9.67244 37.4666 9.80844 37.0986C9.95244 36.7226 10.1564 36.4066 10.4204 36.1506C10.6844 35.8866 11.0044 35.6866 11.3804 35.5506C11.7564 35.4066 12.1764 35.3346 12.6404 35.3346C12.9044 35.3346 13.1884 35.3706 13.4924 35.4426C13.8044 35.5146 14.0964 35.6346 14.3684 35.8026C14.4964 35.8826 14.5804 35.9786 14.6204 36.0906C14.6604 36.2026 14.6684 36.3186 14.6444 36.4386C14.6204 36.5506 14.5684 36.6506 14.4884 36.7386C14.4164 36.8186 14.3244 36.8706 14.2124 36.8946C14.1004 36.9106 13.9764 36.8826 13.8404 36.8106C13.6644 36.7066 13.4844 36.6306 13.3004 36.5826C13.1164 36.5266 12.9404 36.4986 12.7724 36.4986C12.5084 36.4986 12.2764 36.5426 12.0764 36.6306C11.8764 36.7106 11.7044 36.8306 11.5604 36.9906C11.4244 37.1426 11.3204 37.3346 11.2484 37.5666C11.1764 37.7986 11.1404 38.0666 11.1404 38.3706C11.1404 38.9626 11.2804 39.4306 11.5604 39.7746C11.8484 40.1106 12.2524 40.2786 12.7724 40.2786C12.9404 40.2786 13.1124 40.2546 13.2884 40.2066C13.4724 40.1586 13.6564 40.0826 13.8404 39.9786C13.9764 39.9066 14.0964 39.8826 14.2004 39.9066C14.3124 39.9306 14.4044 39.9866 14.4764 40.0746C14.5484 40.1546 14.5924 40.2546 14.6084 40.3746C14.6244 40.4866 14.6084 40.5986 14.5604 40.7106C14.5204 40.8226 14.4404 40.9146 14.3204 40.9866C14.0564 41.1466 13.7764 41.2626 13.4804 41.3346C13.1844 41.4066 12.9044 41.4426 12.6404 41.4426ZM18.1834 41.4426C17.5674 41.4426 17.0314 41.3186 16.5754 41.0706C16.1194 40.8146 15.7674 40.4546 15.5194 39.9906C15.2714 39.5266 15.1474 38.9826 15.1474 38.3586C15.1474 37.8866 15.2154 37.4666 15.3514 37.0986C15.4954 36.7226 15.6994 36.4066 15.9634 36.1506C16.2274 35.8866 16.5474 35.6866 16.9234 35.5506C17.2994 35.4066 17.7194 35.3346 18.1834 35.3346C18.4474 35.3346 18.7314 35.3706 19.0354 35.4426C19.3474 35.5146 19.6394 35.6346 19.9114 35.8026C20.0394 35.8826 20.1234 35.9786 20.1634 36.0906C20.2034 36.2026 20.2114 36.3186 20.1874 36.4386C20.1634 36.5506 20.1114 36.6506 20.0314 36.7386C19.9594 36.8186 19.8674 36.8706 19.7554 36.8946C19.6434 36.9106 19.5194 36.8826 19.3834 36.8106C19.2074 36.7066 19.0274 36.6306 18.8434 36.5826C18.6594 36.5266 18.4834 36.4986 18.3154 36.4986C18.0514 36.4986 17.8194 36.5426 17.6194 36.6306C17.4194 36.7106 17.2474 36.8306 17.1034 36.9906C16.9674 37.1426 16.8634 37.3346 16.7914 37.5666C16.7194 37.7986 16.6834 38.0666 16.6834 38.3706C16.6834 38.9626 16.8234 39.4306 17.1034 39.7746C17.3914 40.1106 17.7954 40.2786 18.3154 40.2786C18.4834 40.2786 18.6554 40.2546 18.8314 40.2066C19.0154 40.1586 19.1994 40.0826 19.3834 39.9786C19.5194 39.9066 19.6394 39.8826 19.7434 39.9066C19.8554 39.9306 19.9474 39.9866 20.0194 40.0746C20.0914 40.1546 20.1354 40.2546 20.1514 40.3746C20.1674 40.4866 20.1514 40.5986 20.1034 40.7106C20.0634 40.8226 19.9834 40.9146 19.8634 40.9866C19.5994 41.1466 19.3194 41.2626 19.0234 41.3346C18.7274 41.4066 18.4474 41.4426 18.1834 41.4426ZM23.6904 41.4426C23.0824 41.4426 22.5544 41.3186 22.1064 41.0706C21.6584 40.8226 21.3104 40.4706 21.0624 40.0146C20.8144 39.5506 20.6904 39.0066 20.6904 38.3826C20.6904 37.9106 20.7584 37.4906 20.8944 37.1226C21.0384 36.7466 21.2424 36.4266 21.5064 36.1626C21.7704 35.8906 22.0864 35.6866 22.4544 35.5506C22.8224 35.4066 23.2344 35.3346 23.6904 35.3346C24.2984 35.3346 24.8264 35.4586 25.2744 35.7066C25.7224 35.9546 26.0704 36.3066 26.3184 36.7626C26.5664 37.2186 26.6904 37.7586 26.6904 38.3826C26.6904 38.8546 26.6184 39.2786 26.4744 39.6546C26.3384 40.0306 26.1384 40.3546 25.8744 40.6266C25.6104 40.8906 25.2944 41.0946 24.9264 41.2386C24.5584 41.3746 24.1464 41.4426 23.6904 41.4426ZM23.6904 40.3026C23.9864 40.3026 24.2464 40.2306 24.4704 40.0866C24.6944 39.9426 24.8664 39.7306 24.9864 39.4506C25.1144 39.1626 25.1784 38.8066 25.1784 38.3826C25.1784 37.7426 25.0424 37.2666 24.7704 36.9546C24.4984 36.6346 24.1384 36.4746 23.6904 36.4746C23.3944 36.4746 23.1344 36.5466 22.9104 36.6906C22.6864 36.8266 22.5104 37.0386 22.3824 37.3266C22.2624 37.6066 22.2024 37.9586 22.2024 38.3826C22.2024 39.0146 22.3384 39.4946 22.6104 39.8226C22.8824 40.1426 23.2424 40.3026 23.6904 40.3026ZM30.0524 41.4426C29.5644 41.4426 29.1604 41.3546 28.8404 41.1786C28.5204 40.9946 28.2804 40.7226 28.1204 40.3626C27.9684 40.0026 27.8924 39.5546 27.8924 39.0186V36.1146C27.8924 35.8586 27.9564 35.6706 28.0844 35.5506C28.2124 35.4226 28.3964 35.3586 28.6364 35.3586C28.8764 35.3586 29.0604 35.4226 29.1884 35.5506C29.3244 35.6706 29.3924 35.8586 29.3924 36.1146V39.0426C29.3924 39.4586 29.4764 39.7666 29.6444 39.9666C29.8124 40.1666 30.0804 40.2666 30.4484 40.2666C30.8484 40.2666 31.1764 40.1306 31.4324 39.8586C31.6884 39.5786 31.8164 39.2106 31.8164 38.7546V36.1146C31.8164 35.8586 31.8804 35.6706 32.0084 35.5506C32.1364 35.4226 32.3204 35.3586 32.5604 35.3586C32.8004 35.3586 32.9844 35.4226 33.1124 35.5506C33.2484 35.6706 33.3164 35.8586 33.3164 36.1146V40.6506C33.3164 41.1626 33.0724 41.4186 32.5844 41.4186C32.3524 41.4186 32.1724 41.3546 32.0444 41.2266C31.9164 41.0906 31.8524 40.8986 31.8524 40.6506V39.7386L32.0204 40.0986C31.8524 40.5306 31.5964 40.8626 31.2524 41.0946C30.9164 41.3266 30.5164 41.4426 30.0524 41.4426ZM35.6217 41.4186C35.3817 41.4186 35.1977 41.3546 35.0697 41.2266C34.9417 41.0906 34.8777 40.8986 34.8777 40.6506V36.1146C34.8777 35.8666 34.9417 35.6786 35.0697 35.5506C35.1977 35.4226 35.3777 35.3586 35.6097 35.3586C35.8417 35.3586 36.0217 35.4226 36.1497 35.5506C36.2777 35.6786 36.3417 35.8666 36.3417 36.1146V36.9306L36.2097 36.6306C36.3857 36.2066 36.6577 35.8866 37.0257 35.6706C37.4017 35.4466 37.8257 35.3346 38.2977 35.3346C38.7697 35.3346 39.1577 35.4226 39.4617 35.5986C39.7657 35.7746 39.9937 36.0426 40.1457 36.4026C40.2977 36.7546 40.3737 37.2026 40.3737 37.7466V40.6506C40.3737 40.8986 40.3097 41.0906 40.1817 41.2266C40.0537 41.3546 39.8697 41.4186 39.6297 41.4186C39.3897 41.4186 39.2017 41.3546 39.0657 41.2266C38.9377 41.0906 38.8737 40.8986 38.8737 40.6506V37.8186C38.8737 37.3626 38.7857 37.0306 38.6097 36.8226C38.4417 36.6146 38.1777 36.5106 37.8177 36.5106C37.3777 36.5106 37.0257 36.6506 36.7617 36.9306C36.5057 37.2026 36.3777 37.5666 36.3777 38.0226V40.6506C36.3777 41.1626 36.1257 41.4186 35.6217 41.4186ZM44.5852 41.4426C44.0652 41.4426 43.6292 41.3546 43.2772 41.1786C42.9332 41.0026 42.6772 40.7466 42.5092 40.4106C42.3412 40.0666 42.2572 39.6426 42.2572 39.1386V36.5826H41.6332C41.4412 36.5826 41.2932 36.5346 41.1892 36.4386C41.0852 36.3346 41.0332 36.1946 41.0332 36.0186C41.0332 35.8346 41.0852 35.6946 41.1892 35.5986C41.2932 35.5026 41.4412 35.4546 41.6332 35.4546H42.2572V34.3626C42.2572 34.1146 42.3212 33.9266 42.4492 33.7986C42.5852 33.6706 42.7732 33.6066 43.0132 33.6066C43.2532 33.6066 43.4372 33.6706 43.5652 33.7986C43.6932 33.9266 43.7572 34.1146 43.7572 34.3626V35.4546H45.0292C45.2212 35.4546 45.3692 35.5026 45.4732 35.5986C45.5772 35.6946 45.6292 35.8346 45.6292 36.0186C45.6292 36.1946 45.5772 36.3346 45.4732 36.4386C45.3692 36.5346 45.2212 36.5826 45.0292 36.5826H43.7572V39.0546C43.7572 39.4386 43.8412 39.7266 44.0092 39.9186C44.1772 40.1106 44.4492 40.2066 44.8252 40.2066C44.9612 40.2066 45.0812 40.1946 45.1852 40.1706C45.2892 40.1466 45.3812 40.1306 45.4612 40.1226C45.5572 40.1146 45.6372 40.1466 45.7012 40.2186C45.7652 40.2826 45.7972 40.4186 45.7972 40.6266C45.7972 40.7866 45.7692 40.9306 45.7132 41.0586C45.6652 41.1786 45.5732 41.2626 45.4372 41.3106C45.3332 41.3426 45.1972 41.3706 45.0292 41.3946C44.8612 41.4266 44.7132 41.4426 44.5852 41.4426Z" fill="white"/>
</svg>
