<svg width="26" height="20" viewBox="0 0 26 20" fill="none" xmlns="http://www.w3.org/2000/svg">
<path fill-rule="evenodd" clip-rule="evenodd" d="M24.375 10.0001C24.375 9.8343 24.2894 9.67533 24.137 9.55812C23.9846 9.44091 23.778 9.37506 23.5625 9.37506H4.39886L9.51274 5.44256C9.58828 5.38445 9.6482 5.31546 9.68909 5.23954C9.72997 5.16361 9.75101 5.08224 9.75101 5.00006C9.75101 4.91788 9.72997 4.8365 9.68909 4.76058C9.6482 4.68465 9.58828 4.61567 9.51274 4.55756C9.43719 4.49945 9.34751 4.45335 9.24881 4.4219C9.15011 4.39045 9.04432 4.37427 8.93749 4.37427C8.83065 4.37427 8.72487 4.39045 8.62616 4.4219C8.52746 4.45335 8.43778 4.49945 8.36224 4.55756L1.86224 9.55756C1.78657 9.61561 1.72654 9.68458 1.68558 9.76052C1.64462 9.83645 1.62354 9.91785 1.62354 10.0001C1.62354 10.0823 1.64462 10.1637 1.68558 10.2396C1.72654 10.3155 1.78657 10.3845 1.86224 10.4426L8.36224 15.4426C8.43778 15.5007 8.52746 15.5468 8.62616 15.5782C8.72487 15.6097 8.83065 15.6258 8.93749 15.6258C9.04432 15.6258 9.15011 15.6097 9.24881 15.5782C9.34751 15.5468 9.43719 15.5007 9.51274 15.4426C9.58828 15.3844 9.6482 15.3155 9.68909 15.2395C9.72997 15.1636 9.75101 15.0822 9.75101 15.0001C9.75101 14.9179 9.72997 14.8365 9.68909 14.7606C9.6482 14.6847 9.58828 14.6157 9.51274 14.5576L4.39886 10.6251H23.5625C23.778 10.6251 23.9846 10.5592 24.137 10.442C24.2894 10.3248 24.375 10.1658 24.375 10.0001Z" fill="white" fill-opacity="0.66"/>
</svg>
