<svg width="16" height="16" viewBox="0 0 16 16" fill="none" xmlns="http://www.w3.org/2000/svg">
<g clip-path="url(#clip0_11_64)">
<path d="M8 16C8.53043 16 9.03914 15.7893 9.41421 15.4142C9.78929 15.0391 10 14.5304 10 14H6C6 14.5304 6.21071 15.0391 6.58579 15.4142C6.96086 15.7893 7.46957 16 8 16ZM8.995 1.099C9.00896 0.959951 8.99362 0.819524 8.94997 0.686771C8.90632 0.554018 8.83533 0.431887 8.74158 0.328256C8.64783 0.224624 8.5334 0.141792 8.40567 0.0851021C8.27794 0.0284121 8.13974 -0.00087738 8 -0.00087738C7.86026 -0.00087738 7.72206 0.0284121 7.59433 0.0851021C7.4666 0.141792 7.35217 0.224624 7.25842 0.328256C7.16467 0.431887 7.09368 0.554018 7.05003 0.686771C7.00638 0.819524 6.99104 0.959951 7.005 1.099C5.87472 1.3289 4.85862 1.94236 4.12876 2.8355C3.39891 3.72864 3.00015 4.84657 3 6C3 7.098 2.5 12 1 13H15C13.5 12 13 7.098 13 6C13 3.58 11.28 1.56 8.995 1.099Z" fill="black"/>
</g>
<defs>
<clipPath id="clip0_11_64">
<rect width="16" height="16" fill="white"/>
</clipPath>
</defs>
</svg>
