<svg width="27" height="29" viewBox="0 0 27 29" fill="none" xmlns="http://www.w3.org/2000/svg">
<g clip-path="url(#clip0_11_57)">
<path d="M8.43749 19.9375C8.43749 20.4182 8.2597 20.8792 7.94323 21.2191C7.62676 21.5591 7.19754 21.75 6.74999 21.75C6.30244 21.75 5.87322 21.5591 5.55675 21.2191C5.24028 20.8792 5.06249 20.4182 5.06249 19.9375C5.06249 19.4568 5.24028 18.9958 5.55675 18.6559C5.87322 18.316 6.30244 18.125 6.74999 18.125C7.19754 18.125 7.62676 18.316 7.94323 18.6559C8.2597 18.9958 8.43749 19.4568 8.43749 19.9375ZM21.9375 19.9375C21.9375 20.4182 21.7597 20.8792 21.4432 21.2191C21.1268 21.5591 20.6975 21.75 20.25 21.75C19.8024 21.75 19.3732 21.5591 19.0567 21.2191C18.7403 20.8792 18.5625 20.4182 18.5625 19.9375C18.5625 19.4568 18.7403 18.9958 19.0567 18.6559C19.3732 18.316 19.8024 18.125 20.25 18.125C20.6975 18.125 21.1268 18.316 21.4432 18.6559C21.7597 18.9958 21.9375 19.4568 21.9375 19.9375ZM11.8125 18.125C11.3649 18.125 10.9357 18.316 10.6192 18.6559C10.3028 18.9958 10.125 19.4568 10.125 19.9375C10.125 20.4182 10.3028 20.8792 10.6192 21.2191C10.9357 21.5591 11.3649 21.75 11.8125 21.75H15.1875C15.635 21.75 16.0643 21.5591 16.3807 21.2191C16.6972 20.8792 16.875 20.4182 16.875 19.9375C16.875 19.4568 16.6972 18.9958 16.3807 18.6559C16.0643 18.316 15.635 18.125 15.1875 18.125H11.8125ZM13.5 7.25C10.3342 7.25 7.71861 7.44756 5.81849 7.65963C5.61112 7.68292 5.41912 7.78785 5.27952 7.95419C5.13993 8.12053 5.06261 8.3365 5.06249 8.56044V15.0021C5.06261 15.226 5.13993 15.442 5.27952 15.6083C5.41912 15.7747 5.61112 15.8796 5.81849 15.9029C7.71861 16.1149 10.3342 16.3125 13.5 16.3125C16.6657 16.3125 19.2814 16.1149 21.1815 15.9029C21.3889 15.8796 21.5809 15.7747 21.7204 15.6083C21.8601 15.442 21.9374 15.226 21.9375 15.0021V8.56044C21.9374 8.3365 21.8601 8.12053 21.7204 7.95419C21.5809 7.78785 21.3889 7.68292 21.1815 7.65963C18.6292 7.38162 16.0653 7.2449 13.5 7.25ZM13.5 5.4375C10.4001 5.4375 7.8418 5.63144 5.99399 5.83625C5.88186 5.85299 5.76774 5.84533 5.65842 5.81371C5.54911 5.7821 5.44683 5.72718 5.35769 5.65222C5.26855 5.57727 5.19436 5.48381 5.13955 5.37742C5.08474 5.27103 5.05042 5.15387 5.03864 5.03294C5.02686 4.912 5.03786 4.78976 5.07098 4.67348C5.1041 4.55721 5.15867 4.44928 5.23144 4.35613C5.3042 4.26298 5.39368 4.18651 5.49453 4.13128C5.59539 4.07604 5.70556 4.04317 5.81849 4.03463C8.37075 3.75662 10.9346 3.6199 13.5 3.625C16.6657 3.625 19.2814 3.82256 21.1815 4.03463C21.2944 4.04317 21.4046 4.07604 21.5054 4.13128C21.6063 4.18651 21.6958 4.26298 21.7685 4.35613C21.8413 4.44928 21.8959 4.55721 21.929 4.67348C21.9621 4.78976 21.9731 4.912 21.9613 5.03294C21.9496 5.15387 21.9152 5.27103 21.8604 5.37742C21.8056 5.48381 21.7314 5.57727 21.6423 5.65222C21.5531 5.72718 21.4509 5.7821 21.3416 5.81371C21.2322 5.84533 21.1181 5.85299 21.006 5.83625C18.512 5.56515 16.0067 5.43206 13.5 5.4375Z" fill="white"/>
<path d="M25.3125 14.5002C25.7601 14.5002 26.1893 14.3093 26.5057 13.9694C26.8222 13.6295 27 13.1684 27 12.6877V9.06274C27 8.58203 26.8222 8.12102 26.5057 7.78111C26.1893 7.4412 25.7601 7.25024 25.3125 7.25024V4.78524C25.3125 2.63199 23.8866 0.73974 21.8295 0.48599C19.0638 0.155051 16.2828 -0.00712637 13.5 0.000240054C9.95625 0.000240054 7.101 0.24674 5.1705 0.48599C3.11344 0.73974 1.6875 2.63199 1.6875 4.78524V7.25024C1.23995 7.25024 0.810725 7.4412 0.494257 7.78111C0.17779 8.12102 0 8.58203 0 9.06274L0 12.6877C0 13.1684 0.17779 13.6295 0.494257 13.9694C0.810725 14.3093 1.23995 14.5002 1.6875 14.5002V20.844C1.6875 22.3266 2.35069 23.6425 3.375 24.469V28.094C3.375 28.3343 3.4639 28.5648 3.62213 28.7348C3.78036 28.9048 3.99497 29.0002 4.21875 29.0002H7.59375C7.81753 29.0002 8.03214 28.9048 8.19037 28.7348C8.34861 28.5648 8.4375 28.3343 8.4375 28.094V25.3752H18.5625V28.094C18.5625 28.3343 18.6514 28.5648 18.8096 28.7348C18.9679 28.9048 19.1825 29.0002 19.4062 29.0002H22.7812C23.005 29.0002 23.2196 28.9048 23.3779 28.7348C23.5361 28.5648 23.625 28.3343 23.625 28.094V24.469C24.6493 23.6425 25.3125 22.3266 25.3125 20.844V14.5002ZM13.5 1.81274C16.9695 1.81274 19.7606 2.05561 21.6371 2.2858C22.7779 2.42718 23.625 3.48205 23.625 4.78524V20.844C23.625 21.565 23.3583 22.2566 22.8836 22.7664C22.4089 23.2763 21.7651 23.5627 21.0938 23.5627H5.90625C5.23492 23.5627 4.59109 23.2763 4.11639 22.7664C3.64168 22.2566 3.375 21.565 3.375 20.844V4.78524C3.375 3.48024 4.22213 2.42718 5.36287 2.2858C8.06474 1.96303 10.7815 1.80509 13.5 1.81274Z" fill="white"/>
</g>
<defs>
<clipPath id="clip0_11_57">
<rect width="27" height="29" fill="white"/>
</clipPath>
</defs>
</svg>
