<svg width="130" height="68" viewBox="0 0 130 68" fill="none" xmlns="http://www.w3.org/2000/svg">
<g clip-path="url(#clip0_11_71)">
<path d="M10.3125 42.9375C10.3125 43.6834 10.0952 44.3988 9.70841 44.9263C9.32162 45.4537 8.79701 45.75 8.25 45.75C7.70299 45.75 7.17839 45.4537 6.7916 44.9263C6.4048 44.3988 6.1875 43.6834 6.1875 42.9375C6.1875 42.1916 6.4048 41.4762 6.7916 40.9488C7.17839 40.4213 7.70299 40.125 8.25 40.125C8.79701 40.125 9.32162 40.4213 9.70841 40.9488C10.0952 41.4762 10.3125 42.1916 10.3125 42.9375ZM26.8125 42.9375C26.8125 43.6834 26.5952 44.3988 26.2084 44.9263C25.8216 45.4537 25.297 45.75 24.75 45.75C24.203 45.75 23.6784 45.4537 23.2916 44.9263C22.9048 44.3988 22.6875 43.6834 22.6875 42.9375C22.6875 42.1916 22.9048 41.4762 23.2916 40.9488C23.6784 40.4213 24.203 40.125 24.75 40.125C25.297 40.125 25.8216 40.4213 26.2084 40.9488C26.5952 41.4762 26.8125 42.1916 26.8125 42.9375ZM14.4375 40.125C13.8905 40.125 13.3659 40.4213 12.9791 40.9488C12.5923 41.4762 12.375 42.1916 12.375 42.9375C12.375 43.6834 12.5923 44.3988 12.9791 44.9263C13.3659 45.4537 13.8905 45.75 14.4375 45.75H18.5625C19.1095 45.75 19.6341 45.4537 20.0209 44.9263C20.4077 44.3988 20.625 43.6834 20.625 42.9375C20.625 42.1916 20.4077 41.4762 20.0209 40.9488C19.6341 40.4213 19.1095 40.125 18.5625 40.125H14.4375ZM16.5 23.25C12.6308 23.25 9.43388 23.5566 7.1115 23.8856C6.85805 23.9218 6.62339 24.0846 6.45277 24.3427C6.28215 24.6008 6.18765 24.9359 6.1875 25.2834V35.2791C6.18765 35.6266 6.28215 35.9617 6.45277 36.2198C6.62339 36.4779 6.85805 36.6407 7.1115 36.6769C9.43388 37.006 12.6308 37.3125 16.5 37.3125C20.3692 37.3125 23.5661 37.006 25.8885 36.6769C26.1419 36.6407 26.3766 36.4779 26.5472 36.2198C26.7179 35.9617 26.8123 35.6266 26.8125 35.2791V25.2834C26.8123 24.9359 26.7179 24.6008 26.5472 24.3427C26.3766 24.0846 26.1419 23.9218 25.8885 23.8856C22.7691 23.4542 19.6354 23.2421 16.5 23.25ZM16.5 20.4375C12.7112 20.4375 9.58444 20.7384 7.326 21.0563C7.18895 21.0822 7.04947 21.0703 6.91586 21.0213C6.78226 20.9722 6.65726 20.887 6.5483 20.7707C6.43935 20.6544 6.34868 20.5094 6.28169 20.3443C6.21469 20.1792 6.17275 19.9974 6.15835 19.8097C6.14395 19.6221 6.15739 19.4324 6.19788 19.252C6.23836 19.0715 6.30506 18.9041 6.39399 18.7595C6.48293 18.615 6.59229 18.4963 6.71556 18.4106C6.83882 18.3249 6.97348 18.2739 7.1115 18.2606C10.2309 17.8292 13.3646 17.6171 16.5 17.625C20.3692 17.625 23.5661 17.9316 25.8885 18.2606C26.0265 18.2739 26.1612 18.3249 26.2844 18.4106C26.4077 18.4963 26.5171 18.615 26.606 18.7595C26.6949 18.9041 26.7616 19.0715 26.8021 19.252C26.8426 19.4324 26.856 19.6221 26.8417 19.8097C26.8273 19.9974 26.7853 20.1792 26.7183 20.3443C26.6513 20.5094 26.5606 20.6544 26.4517 20.7707C26.3427 20.887 26.2177 20.9722 26.0841 21.0213C25.9505 21.0703 25.811 21.0822 25.674 21.0563C22.6258 20.6356 19.5638 20.4291 16.5 20.4375Z" fill="white"/>
<path d="M30.9375 34.5004C31.4845 34.5004 32.0091 34.204 32.3959 33.6766C32.7827 33.1492 33 32.4338 33 31.6879V26.0629C33 25.3169 32.7827 24.6016 32.3959 24.0741C32.0091 23.5467 31.4845 23.2504 30.9375 23.2504V19.4254C30.9375 16.0841 29.1947 13.1479 26.6805 12.7541C23.3002 12.2406 19.9012 11.9889 16.5 12.0004C12.1687 12.0004 8.679 12.3829 6.3195 12.7541C3.80531 13.1479 2.0625 16.0841 2.0625 19.4254V23.2504C1.51549 23.2504 0.990886 23.5467 0.604092 24.0741C0.217299 24.6016 0 25.3169 0 26.0629L0 31.6879C0 32.4338 0.217299 33.1492 0.604092 33.6766C0.990886 34.204 1.51549 34.5004 2.0625 34.5004V44.3441C2.0625 46.6447 2.87306 48.6866 4.125 49.9691V55.5941C4.125 55.9671 4.23365 56.3248 4.42705 56.5885C4.62044 56.8522 4.88275 57.0004 5.15625 57.0004H9.28125C9.55475 57.0004 9.81706 56.8522 10.0105 56.5885C10.2039 56.3248 10.3125 55.9671 10.3125 55.5941V51.3754H22.6875V55.5941C22.6875 55.9671 22.7961 56.3248 22.9895 56.5885C23.1829 56.8522 23.4452 57.0004 23.7188 57.0004H27.8438C28.1173 57.0004 28.3796 56.8522 28.573 56.5885C28.7664 56.3248 28.875 55.9671 28.875 55.5941V49.9691C30.1269 48.6866 30.9375 46.6447 30.9375 44.3441V34.5004ZM16.5 14.8129C20.7405 14.8129 24.1519 15.1897 26.4454 15.5469C27.8396 15.7663 28.875 17.4032 28.875 19.4254V44.3441C28.875 45.463 28.5491 46.536 27.9689 47.3272C27.3887 48.1184 26.6018 48.5629 25.7812 48.5629H7.21875C6.39824 48.5629 5.61133 48.1184 5.03114 47.3272C4.45095 46.536 4.125 45.463 4.125 44.3441V19.4254C4.125 17.4004 5.16038 15.7663 6.55463 15.5469C9.85691 15.0461 13.1774 14.801 16.5 14.8129Z" fill="white"/>
</g>
<path d="M70.66 29.57C70.6 30.53 70.45 31.58 70.21 32.72C70 33.86 69.745 34.955 69.445 36.005C69.145 37.055 68.8 38 68.41 38.84C68.05 39.68 67.63 40.28 67.15 40.64C66.55 40.76 65.77 40.895 64.81 41.045C63.85 41.225 62.785 41.375 61.615 41.495C60.475 41.645 59.29 41.795 58.06 41.945C56.86 42.095 55.735 42.185 54.685 42.215C52.195 42.365 49.795 42.41 47.485 42.35C45.205 42.32 43.105 42.11 41.185 41.72C41.035 40.67 40.945 39.215 40.915 37.355C40.915 35.495 40.93 33.44 40.96 31.19C40.99 28.91 41.035 26.54 41.095 24.08C41.185 21.59 41.26 19.25 41.32 17.06C41.17 17.03 40.975 17.03 40.735 17.06C40.495 17.06 40.24 17.06 39.97 17.06C39.7 17.06 39.43 17.045 39.16 17.015C38.89 16.955 38.665 16.88 38.485 16.79C38.515 15.5 38.59 14.3 38.71 13.19C38.86 12.05 38.98 10.97 39.07 9.95C40.15 9.83 41.38 9.695 42.76 9.545C44.14 9.395 45.61 9.275 47.17 9.185C48.73 9.095 50.335 9.035 51.985 9.005C53.665 8.975 55.33 8.975 56.98 9.005C58.63 9.005 60.235 9.065 61.795 9.185C63.355 9.275 64.81 9.41 66.16 9.59C66.4 9.89 66.67 10.355 66.97 10.985C67.27 11.615 67.555 12.305 67.825 13.055C68.095 13.805 68.32 14.585 68.5 15.395C68.71 16.205 68.86 16.91 68.95 17.51C68.74 18.17 68.425 18.815 68.005 19.445C67.615 20.075 67.165 20.675 66.655 21.245C66.175 21.785 65.65 22.28 65.08 22.73C64.54 23.15 64.015 23.495 63.505 23.765C64.945 24.215 66.295 24.905 67.555 25.835C68.845 26.765 69.88 28.01 70.66 29.57ZM57.565 21.065C57.655 20.555 57.685 20 57.655 19.4C57.655 18.8 57.595 18.23 57.475 17.69C57.385 17.15 57.22 16.67 56.98 16.25C56.74 15.8 56.455 15.455 56.125 15.215C55.495 15.065 54.79 15.05 54.01 15.17C53.26 15.26 52.57 15.44 51.94 15.71C51.91 16.22 51.865 16.76 51.805 17.33C51.775 17.87 51.745 18.425 51.715 18.995C51.685 19.565 51.67 20.075 51.67 20.525C51.67 20.975 51.685 21.35 51.715 21.65C51.985 21.71 52.405 21.755 52.975 21.785C53.545 21.785 54.13 21.77 54.73 21.74C55.33 21.68 55.9 21.59 56.44 21.47C56.98 21.35 57.355 21.215 57.565 21.065ZM58.51 29.075C58.27 28.865 57.88 28.7 57.34 28.58C56.8 28.46 56.2 28.37 55.54 28.31C54.88 28.25 54.22 28.25 53.56 28.31C52.9 28.37 52.36 28.49 51.94 28.67C51.7 30.23 51.61 31.655 51.67 32.945C51.73 34.205 51.835 35.255 51.985 36.095C52.375 36.185 52.81 36.23 53.29 36.23C53.8 36.2 54.295 36.17 54.775 36.14C55.255 36.08 55.72 36.005 56.17 35.915C56.65 35.795 57.055 35.675 57.385 35.555C57.895 34.805 58.225 33.875 58.375 32.765C58.525 31.655 58.57 30.425 58.51 29.075ZM99.4368 16.52C99.4368 17.93 99.4068 19.46 99.3468 21.11C99.3168 22.73 99.2868 24.38 99.2568 26.06C99.2268 27.74 99.2118 29.36 99.2118 30.92C99.2118 32.48 99.2418 33.89 99.3018 35.15C99.1518 35.54 98.9418 35.975 98.6718 36.455C98.4018 36.935 98.0868 37.445 97.7268 37.985C97.3668 38.495 96.9918 38.99 96.6018 39.47C96.2118 39.95 95.8518 40.385 95.5218 40.775C94.3518 40.805 93.0018 40.85 91.4718 40.91C89.9418 40.97 88.3518 41.03 86.7018 41.09C85.0518 41.15 83.4168 41.18 81.7968 41.18C80.1768 41.18 78.6768 41.12 77.2968 41C77.0268 40.73 76.7118 40.37 76.3518 39.92C75.9918 39.44 75.6318 38.945 75.2718 38.435C74.9418 37.925 74.6268 37.415 74.3268 36.905C74.0568 36.365 73.8468 35.9 73.6968 35.51C73.6968 34.85 73.6818 34.01 73.6518 32.99C73.6518 31.97 73.6368 30.875 73.6068 29.705C73.5768 28.535 73.5468 27.35 73.5168 26.15C73.5168 24.92 73.5168 23.735 73.5168 22.595C73.5168 21.455 73.5318 20.42 73.5618 19.49C73.6218 18.53 73.6968 17.765 73.7868 17.195C75.4068 16.985 76.9668 16.865 78.4668 16.835C79.9968 16.805 81.6318 16.895 83.3718 17.105C83.2218 18.845 83.1168 20.465 83.0568 21.965C83.0268 23.465 83.0118 24.92 83.0118 26.33C83.0418 27.71 83.0868 29.03 83.1468 30.29C83.2068 31.55 83.2968 32.81 83.4168 34.07C83.8068 34.25 84.2868 34.37 84.8568 34.43C85.4568 34.49 86.0568 34.505 86.6568 34.475C87.2568 34.445 87.8268 34.34 88.3668 34.16C88.9068 33.98 89.3568 33.74 89.7168 33.44C89.7168 32.12 89.7018 30.755 89.6718 29.345C89.6718 27.935 89.6568 26.525 89.6268 25.115C89.6268 23.675 89.6268 22.265 89.6268 20.885C89.6268 19.505 89.6418 18.23 89.6718 17.06C91.2918 16.76 92.8968 16.61 94.4868 16.61C96.1068 16.61 97.7568 16.58 99.4368 16.52ZM124.203 21.29C122.493 21.53 120.768 21.725 119.028 21.875C117.318 22.025 115.593 22.25 113.853 22.55C113.493 23.06 113.268 23.63 113.178 24.26C113.088 24.86 113.028 25.46 112.998 26.06C114.858 26.39 116.718 26.705 118.578 27.005C120.438 27.275 122.298 27.56 124.158 27.86C124.518 28.61 124.758 29.45 124.878 30.38C124.998 31.28 125.013 32.195 124.923 33.125C124.833 34.055 124.638 34.97 124.338 35.87C124.068 36.74 123.723 37.535 123.303 38.255C121.863 38.945 120.348 39.53 118.758 40.01C117.198 40.46 115.608 40.835 113.988 41.135C112.398 41.465 110.793 41.75 109.173 41.99C107.553 42.23 105.948 42.425 104.358 42.575C104.178 42.485 104.013 42.155 103.863 41.585C103.713 41.015 103.593 40.4 103.503 39.74C103.413 39.08 103.338 38.435 103.278 37.805C103.248 37.175 103.248 36.74 103.278 36.5C104.118 36.41 105.048 36.32 106.068 36.23C107.088 36.11 108.078 35.975 109.038 35.825C110.028 35.645 110.928 35.465 111.738 35.285C112.578 35.075 113.208 34.88 113.628 34.7C113.718 34.43 113.778 34.085 113.808 33.665C113.868 33.215 113.868 32.81 113.808 32.45C113.568 32.27 113.163 32.135 112.593 32.045C112.023 31.925 111.378 31.805 110.658 31.685C109.938 31.565 109.158 31.46 108.318 31.37C107.478 31.28 106.668 31.19 105.888 31.1C105.108 30.98 104.403 30.845 103.773 30.695C103.143 30.515 102.633 30.305 102.243 30.065C102.123 28.025 102.258 25.97 102.648 23.9C103.068 21.83 103.728 19.88 104.628 18.05C106.098 17.57 107.628 17.15 109.218 16.79C110.808 16.43 112.413 16.16 114.033 15.98C115.653 15.77 117.258 15.635 118.848 15.575C120.468 15.485 122.058 15.455 123.618 15.485C123.918 16.355 124.098 17.315 124.158 18.365C124.218 19.415 124.233 20.39 124.203 21.29ZM48.968 54.936C48.9467 55.2773 48.8933 55.6507 48.808 56.056C48.7333 56.4613 48.6427 56.8507 48.536 57.224C48.4293 57.5973 48.3067 57.9333 48.168 58.232C48.04 58.5307 47.8907 58.744 47.72 58.872C47.5067 58.9147 47.2293 58.9627 46.888 59.016C46.5467 59.08 46.168 59.1333 45.752 59.176C45.3467 59.2293 44.9253 59.2827 44.488 59.336C44.0613 59.3893 43.6613 59.4213 43.288 59.432C42.4027 59.4853 41.5493 59.5013 40.728 59.48C39.9173 59.4693 39.1707 59.3947 38.488 59.256C38.4347 58.8827 38.4027 58.3653 38.392 57.704C38.392 57.0427 38.3973 56.312 38.408 55.512C38.4187 54.7013 38.4347 53.8587 38.456 52.984C38.488 52.0987 38.5147 51.2667 38.536 50.488C38.4827 50.4773 38.4133 50.4773 38.328 50.488C38.2427 50.488 38.152 50.488 38.056 50.488C37.96 50.488 37.864 50.4827 37.768 50.472C37.672 50.4507 37.592 50.424 37.528 50.392C37.5387 49.9333 37.5653 49.5067 37.608 49.112C37.6613 48.7067 37.704 48.3227 37.736 47.96C38.12 47.9173 38.5573 47.8693 39.048 47.816C39.5387 47.7627 40.0613 47.72 40.616 47.688C41.1707 47.656 41.7413 47.6347 42.328 47.624C42.9253 47.6133 43.5173 47.6133 44.104 47.624C44.6907 47.624 45.2613 47.6453 45.816 47.688C46.3707 47.72 46.888 47.768 47.368 47.832C47.4533 47.9387 47.5493 48.104 47.656 48.328C47.7627 48.552 47.864 48.7973 47.96 49.064C48.056 49.3307 48.136 49.608 48.2 49.896C48.2747 50.184 48.328 50.4347 48.36 50.648C48.2853 50.8827 48.1733 51.112 48.024 51.336C47.8853 51.56 47.7253 51.7733 47.544 51.976C47.3733 52.168 47.1867 52.344 46.984 52.504C46.792 52.6533 46.6053 52.776 46.424 52.872C46.936 53.032 47.416 53.2773 47.864 53.608C48.3227 53.9387 48.6907 54.3813 48.968 54.936ZM44.312 51.912C44.344 51.7307 44.3547 51.5333 44.344 51.32C44.344 51.1067 44.3227 50.904 44.28 50.712C44.248 50.52 44.1893 50.3493 44.104 50.2C44.0187 50.04 43.9173 49.9173 43.8 49.832C43.576 49.7787 43.3253 49.7733 43.048 49.816C42.7813 49.848 42.536 49.912 42.312 50.008C42.3013 50.1893 42.2853 50.3813 42.264 50.584C42.2533 50.776 42.2427 50.9733 42.232 51.176C42.2213 51.3787 42.216 51.56 42.216 51.72C42.216 51.88 42.2213 52.0133 42.232 52.12C42.328 52.1413 42.4773 52.1573 42.68 52.168C42.8827 52.168 43.0907 52.1627 43.304 52.152C43.5173 52.1307 43.72 52.0987 43.912 52.056C44.104 52.0133 44.2373 51.9653 44.312 51.912ZM44.648 54.76C44.5627 54.6853 44.424 54.6267 44.232 54.584C44.04 54.5413 43.8267 54.5093 43.592 54.488C43.3573 54.4667 43.1227 54.4667 42.888 54.488C42.6533 54.5093 42.4613 54.552 42.312 54.616C42.2267 55.1707 42.1947 55.6773 42.216 56.136C42.2373 56.584 42.2747 56.9573 42.328 57.256C42.4667 57.288 42.6213 57.304 42.792 57.304C42.9733 57.2933 43.1493 57.2827 43.32 57.272C43.4907 57.2507 43.656 57.224 43.816 57.192C43.9867 57.1493 44.1307 57.1067 44.248 57.064C44.4293 56.7973 44.5467 56.4667 44.6 56.072C44.6533 55.6773 44.6693 55.24 44.648 54.76ZM59.1998 50.296C59.1998 50.7973 59.1891 51.3413 59.1678 51.928C59.1571 52.504 59.1464 53.0907 59.1358 53.688C59.1251 54.2853 59.1198 54.8613 59.1198 55.416C59.1198 55.9707 59.1304 56.472 59.1518 56.92C59.0984 57.0587 59.0238 57.2133 58.9278 57.384C58.8318 57.5547 58.7198 57.736 58.5918 57.928C58.4638 58.1093 58.3304 58.2853 58.1918 58.456C58.0531 58.6267 57.9251 58.7813 57.8078 58.92C57.3918 58.9307 56.9118 58.9467 56.3678 58.968C55.8238 58.9893 55.2584 59.0107 54.6718 59.032C54.0851 59.0533 53.5038 59.064 52.9278 59.064C52.3518 59.064 51.8184 59.0427 51.3278 59C51.2318 58.904 51.1198 58.776 50.9918 58.616C50.8638 58.4453 50.7358 58.2693 50.6078 58.088C50.4904 57.9067 50.3784 57.7253 50.2718 57.544C50.1758 57.352 50.1011 57.1867 50.0478 57.048C50.0478 56.8133 50.0424 56.5147 50.0318 56.152C50.0318 55.7893 50.0264 55.4 50.0158 54.984C50.0051 54.568 49.9944 54.1467 49.9838 53.72C49.9838 53.2827 49.9838 52.8613 49.9838 52.456C49.9838 52.0507 49.9891 51.6827 49.9998 51.352C50.0211 51.0107 50.0478 50.7387 50.0798 50.536C50.6558 50.4613 51.2104 50.4187 51.7438 50.408C52.2878 50.3973 52.8691 50.4293 53.4878 50.504C53.4344 51.1227 53.3971 51.6987 53.3758 52.232C53.3651 52.7653 53.3598 53.2827 53.3598 53.784C53.3704 54.2747 53.3864 54.744 53.4078 55.192C53.4291 55.64 53.4611 56.088 53.5038 56.536C53.6424 56.6 53.8131 56.6427 54.0158 56.664C54.2291 56.6853 54.4424 56.6907 54.6558 56.68C54.8691 56.6693 55.0718 56.632 55.2638 56.568C55.4558 56.504 55.6158 56.4187 55.7438 56.312C55.7438 55.8427 55.7384 55.3573 55.7278 54.856C55.7278 54.3547 55.7224 53.8533 55.7118 53.352C55.7118 52.84 55.7118 52.3387 55.7118 51.848C55.7118 51.3573 55.7171 50.904 55.7278 50.488C56.3038 50.3813 56.8744 50.328 57.4398 50.328C58.0158 50.328 58.6024 50.3173 59.1998 50.296ZM70.0056 48.024C70.0056 48.8453 70.0056 49.7413 70.0056 50.712C70.0056 51.672 70.0056 52.6533 70.0056 53.656C70.0056 54.648 69.995 55.6187 69.9736 56.568C69.9523 57.5067 69.9096 58.3547 69.8456 59.112C69.4296 59.208 68.9816 59.2827 68.5016 59.336C68.0323 59.4 67.5523 59.4427 67.0616 59.464C66.571 59.4853 66.0856 59.4853 65.6056 59.464C65.1256 59.4533 64.667 59.432 64.2296 59.4C63.7923 59.368 63.3923 59.3307 63.0296 59.288C62.667 59.256 62.3576 59.224 62.1016 59.192C61.771 58.904 61.451 58.536 61.1416 58.088C60.843 57.6293 60.5656 57.2027 60.3096 56.808C60.2456 56.488 60.2403 56.0933 60.2936 55.624C60.3576 55.144 60.459 54.6587 60.5976 54.168C60.7363 53.6667 60.9123 53.2027 61.1256 52.776C61.339 52.3387 61.579 51.992 61.8456 51.736C62.2083 51.6613 62.5763 51.5813 62.9496 51.496C63.323 51.4107 63.7016 51.336 64.0856 51.272C64.4696 51.208 64.859 51.16 65.2536 51.128C65.659 51.096 66.0643 51.0907 66.4696 51.112C66.4696 50.888 66.475 50.6373 66.4856 50.36C66.4963 50.072 66.5016 49.784 66.5016 49.496C66.5123 49.208 66.523 48.9307 66.5336 48.664C66.5443 48.3973 66.555 48.1627 66.5656 47.96C66.8003 47.864 67.0723 47.8 67.3816 47.768C67.691 47.736 68.0056 47.7253 68.3256 47.736C68.6456 47.7467 68.9496 47.7787 69.2376 47.832C69.5363 47.8853 69.7923 47.9493 70.0056 48.024ZM66.4216 53.704C66.1016 53.6187 65.739 53.5867 65.3336 53.608C64.9283 53.6187 64.5656 53.704 64.2456 53.864C64.107 54.44 64.0056 54.9947 63.9416 55.528C63.8883 56.0507 63.9043 56.5253 63.9896 56.952C64.139 56.9947 64.3096 57.032 64.5016 57.064C64.7043 57.0853 64.9176 57.096 65.1416 57.096C65.3656 57.096 65.5843 57.0853 65.7976 57.064C66.0216 57.032 66.2296 56.9947 66.4216 56.952C66.443 56.888 66.4536 56.712 66.4536 56.424C66.4643 56.136 66.4643 55.816 66.4536 55.464C66.4536 55.112 66.4483 54.7707 66.4376 54.44C66.4376 54.0987 66.4323 53.8533 66.4216 53.704ZM81.1306 48.024C81.1306 48.8453 81.1306 49.7413 81.1306 50.712C81.1306 51.672 81.1306 52.6533 81.1306 53.656C81.1306 54.648 81.12 55.6187 81.0986 56.568C81.0773 57.5067 81.0346 58.3547 80.9706 59.112C80.5546 59.208 80.1066 59.2827 79.6266 59.336C79.1573 59.4 78.6773 59.4427 78.1866 59.464C77.696 59.4853 77.2106 59.4853 76.7306 59.464C76.2506 59.4533 75.792 59.432 75.3546 59.4C74.9173 59.368 74.5173 59.3307 74.1546 59.288C73.792 59.256 73.4826 59.224 73.2266 59.192C72.896 58.904 72.576 58.536 72.2666 58.088C71.968 57.6293 71.6906 57.2027 71.4346 56.808C71.3706 56.488 71.3653 56.0933 71.4186 55.624C71.4826 55.144 71.584 54.6587 71.7226 54.168C71.8613 53.6667 72.0373 53.2027 72.2506 52.776C72.464 52.3387 72.704 51.992 72.9706 51.736C73.3333 51.6613 73.7013 51.5813 74.0746 51.496C74.448 51.4107 74.8266 51.336 75.2106 51.272C75.5946 51.208 75.984 51.16 76.3786 51.128C76.784 51.096 77.1893 51.0907 77.5946 51.112C77.5946 50.888 77.6 50.6373 77.6106 50.36C77.6213 50.072 77.6266 49.784 77.6266 49.496C77.6373 49.208 77.648 48.9307 77.6586 48.664C77.6693 48.3973 77.68 48.1627 77.6906 47.96C77.9253 47.864 78.1973 47.8 78.5066 47.768C78.816 47.736 79.1306 47.7253 79.4506 47.736C79.7706 47.7467 80.0746 47.7787 80.3626 47.832C80.6613 47.8853 80.9173 47.9493 81.1306 48.024ZM77.5466 53.704C77.2266 53.6187 76.864 53.5867 76.4586 53.608C76.0533 53.6187 75.6906 53.704 75.3706 53.864C75.232 54.44 75.1306 54.9947 75.0666 55.528C75.0133 56.0507 75.0293 56.5253 75.1146 56.952C75.264 56.9947 75.4346 57.032 75.6266 57.064C75.8293 57.0853 76.0426 57.096 76.2666 57.096C76.4906 57.096 76.7093 57.0853 76.9226 57.064C77.1466 57.032 77.3546 56.9947 77.5466 56.952C77.568 56.888 77.5786 56.712 77.5786 56.424C77.5893 56.136 77.5893 55.816 77.5786 55.464C77.5786 55.112 77.5733 54.7707 77.5626 54.44C77.5626 54.0987 77.5573 53.8533 77.5466 53.704ZM92.1276 50.232C91.8716 50.5947 91.5996 51.0053 91.3116 51.464C91.0343 51.9227 90.7463 52.3973 90.4476 52.888C90.149 53.368 89.845 53.848 89.5356 54.328C89.237 54.808 88.949 55.256 88.6716 55.672C88.661 56.2693 88.645 56.8453 88.6236 57.4C88.613 57.944 88.597 58.4507 88.5756 58.92C88.341 58.9627 88.0903 58.9893 87.8236 59C87.557 59.0213 87.285 59.032 87.0076 59.032C86.741 59.032 86.4743 59.0213 86.2076 59C85.9516 58.9893 85.701 58.984 85.4556 58.984C85.4556 58.408 85.445 57.8427 85.4236 57.288C85.413 56.7227 85.4023 56.152 85.3916 55.576C85.2316 55.384 85.0556 55.1493 84.8636 54.872C84.6716 54.5947 84.4743 54.296 84.2716 53.976C84.069 53.6453 83.8663 53.304 83.6636 52.952C83.461 52.5893 83.2743 52.2373 83.1036 51.896C82.933 51.5547 82.7836 51.24 82.6556 50.952C82.5383 50.664 82.453 50.424 82.3996 50.232C82.677 50.2107 82.9916 50.1893 83.3436 50.168C83.6956 50.136 84.0316 50.1093 84.3516 50.088C84.6716 50.0667 84.9543 50.056 85.1996 50.056C85.445 50.0453 85.5943 50.0453 85.6476 50.056C85.701 50.2267 85.7863 50.4347 85.9036 50.68C86.021 50.9253 86.1436 51.1707 86.2716 51.416C86.4103 51.6507 86.533 51.8693 86.6396 52.072C86.757 52.264 86.837 52.408 86.8796 52.504C86.8796 52.5253 86.8956 52.5627 86.9276 52.616C86.9596 52.6587 86.997 52.7067 87.0396 52.76C87.093 52.8027 87.141 52.8453 87.1836 52.888C87.237 52.92 87.285 52.936 87.3276 52.936C87.445 52.936 87.541 52.8987 87.6156 52.824C87.701 52.7387 87.7543 52.6693 87.7756 52.616C87.9996 52.2107 88.213 51.7893 88.4156 51.352C88.6183 50.904 88.8423 50.4827 89.0876 50.088C89.4716 50.056 89.829 50.04 90.1596 50.04C90.4903 50.04 90.789 50.0507 91.0556 50.072C91.3223 50.0933 91.5463 50.12 91.7276 50.152C91.9196 50.184 92.053 50.2107 92.1276 50.232Z" fill="white"/>
<defs>
<clipPath id="clip0_11_71">
<rect width="33" height="45" fill="white" transform="translate(0 12)"/>
</clipPath>
</defs>
</svg>
