<svg width="44" height="43" viewBox="0 0 44 43" fill="none" xmlns="http://www.w3.org/2000/svg">
<g clip-path="url(#clip0_162_67)">
<path d="M23.5698 25.0428C24.6004 24.5861 25.4233 23.775 25.8576 22.7877C26.2919 21.8004 26.302 20.7179 25.8856 19.7783C25.4693 18.8387 24.6606 18.1189 23.6375 17.7774C22.6144 17.4359 21.4607 17.5006 20.4302 17.9572C19.3997 18.4139 18.5767 19.225 18.1424 20.2123C17.7081 21.1996 17.698 22.2821 18.1144 23.2217C18.5307 24.1613 19.3394 24.8811 20.3625 25.2226C21.3856 25.5641 22.5393 25.4994 23.5698 25.0428Z" fill="white"/>
<path d="M3.31787 21.3014C3.1097 20.8316 3.11474 20.2903 3.33189 19.7967C3.54904 19.303 3.96051 18.8974 4.47577 18.6691L31.6752 6.61695C32.1905 6.38863 32.7673 6.35629 33.2789 6.52705C33.7904 6.69781 34.1947 7.05767 34.4029 7.52747L40.6822 21.6986C40.8904 22.1684 40.8853 22.7097 40.6682 23.2033C40.451 23.6969 40.0395 24.1025 39.5243 24.3308L12.3249 36.383C11.8096 36.6113 11.2327 36.6437 10.7212 36.4729C10.2096 36.3021 9.80531 35.9423 9.59714 35.4725L3.31787 21.3014ZM9.14631 18.7188C9.56266 19.6584 9.55257 20.7409 9.11827 21.7282C8.68397 22.7155 7.86104 23.5266 6.8305 23.9833L9.97014 31.0688C11.0007 30.6122 12.1544 30.5475 13.1775 30.889C14.2006 31.2306 15.0092 31.9503 15.4256 32.8899L34.8537 24.2812C34.4374 23.3416 34.4475 22.2591 34.8818 21.2718C35.3161 20.2845 36.139 19.4733 37.1696 19.0167L34.0299 11.9311C32.9994 12.3878 31.8457 12.4524 30.8226 12.1109C29.7995 11.7694 28.9908 11.0497 28.5745 10.1101L9.14631 18.7188Z" fill="white"/>
</g>
<defs>
<clipPath id="clip0_162_67">
<rect width="34" height="31" fill="white" transform="translate(0.178223 14.2158) rotate(-23.8983)"/>
</clipPath>
</defs>
</svg>
