<svg width="25" height="25" viewBox="0 0 25 25" fill="none" xmlns="http://www.w3.org/2000/svg">
<g clip-path="url(#clip0_11_102)">
<path d="M24.2891 10.2472C24.4348 11.0862 24.5075 11.9362 24.5062 12.7878C24.5062 16.5909 23.1469 19.8066 20.7812 21.9831H20.7844C18.7156 23.8941 15.8719 25.0003 12.5 25.0003C9.18479 25.0003 6.00537 23.6833 3.66116 21.3391C1.31696 18.9949 0 15.8155 0 12.5003C0 9.1851 1.31696 6.00568 3.66116 3.66147C6.00537 1.31727 9.18479 0.000306024 12.5 0.000306024C15.603 -0.0360351 18.5998 1.12973 20.8625 3.25343L17.2937 6.82218C16.0037 5.59245 14.282 4.91904 12.5 4.94718C9.23906 4.94718 6.46875 7.14718 5.48125 10.1097C4.95767 11.662 4.95767 13.3433 5.48125 14.8956H5.48594C6.47812 17.8534 9.24375 20.0534 12.5047 20.0534C14.1891 20.0534 15.6359 19.6222 16.7578 18.8597H16.7531C17.4045 18.4281 17.9618 17.8691 18.3912 17.2162C18.8206 16.5634 19.1133 15.8303 19.2516 15.0612H12.5V10.2487L24.2891 10.2472Z" fill="white"/>
</g>
<defs>
<clipPath id="clip0_11_102">
<rect width="25" height="25" fill="white"/>
</clipPath>
</defs>
</svg>
