<svg width="39" height="48" viewBox="0 0 39 48" fill="none" xmlns="http://www.w3.org/2000/svg">
<path d="M4.58067 41.1901C4.33267 41.1901 4.14067 41.1221 4.00467 40.9861C3.87667 40.8421 3.81267 40.6461 3.81267 40.3981V33.3301C3.81267 33.0741 3.87667 32.8781 4.00467 32.7421C4.14067 32.6061 4.33267 32.5381 4.58067 32.5381C4.82867 32.5381 5.01667 32.6061 5.14467 32.7421C5.28067 32.8781 5.34867 33.0741 5.34867 33.3301V36.1621H9.70467V33.3301C9.70467 33.0741 9.76867 32.8781 9.89667 32.7421C10.0327 32.6061 10.2247 32.5381 10.4727 32.5381C10.7207 32.5381 10.9087 32.6061 11.0367 32.7421C11.1727 32.8781 11.2407 33.0741 11.2407 33.3301V40.3981C11.2407 40.6461 11.1727 40.8421 11.0367 40.9861C10.9087 41.1221 10.7207 41.1901 10.4727 41.1901C10.2247 41.1901 10.0327 41.1221 9.89667 40.9861C9.76867 40.8421 9.70467 40.6461 9.70467 40.3981V37.4461H5.34867V40.3981C5.34867 40.6461 5.28467 40.8421 5.15667 40.9861C5.02867 41.1221 4.83667 41.1901 4.58067 41.1901ZM15.6259 41.2141C15.0179 41.2141 14.4899 41.0901 14.0419 40.8421C13.5939 40.5941 13.2459 40.2421 12.9979 39.7861C12.7499 39.3221 12.6259 38.7781 12.6259 38.1541C12.6259 37.6821 12.6939 37.2621 12.8299 36.8941C12.9739 36.5181 13.1779 36.1981 13.4419 35.9341C13.7059 35.6621 14.0219 35.4581 14.3899 35.3221C14.7579 35.1781 15.1699 35.1061 15.6259 35.1061C16.2339 35.1061 16.7619 35.2301 17.2099 35.4781C17.6579 35.7261 18.0059 36.0781 18.2539 36.5341C18.5019 36.9901 18.6259 37.5301 18.6259 38.1541C18.6259 38.6261 18.5539 39.0501 18.4099 39.4261C18.2739 39.8021 18.0739 40.1261 17.8099 40.3981C17.5459 40.6621 17.2299 40.8661 16.8619 41.0101C16.4939 41.1461 16.0819 41.2141 15.6259 41.2141ZM15.6259 40.0741C15.9219 40.0741 16.1819 40.0021 16.4059 39.8581C16.6299 39.7141 16.8019 39.5021 16.9219 39.2221C17.0499 38.9341 17.1139 38.5781 17.1139 38.1541C17.1139 37.5141 16.9779 37.0381 16.7059 36.7261C16.4339 36.4061 16.0739 36.2461 15.6259 36.2461C15.3299 36.2461 15.0699 36.3181 14.8459 36.4621C14.6219 36.5981 14.4459 36.8101 14.3179 37.0981C14.1979 37.3781 14.1379 37.7301 14.1379 38.1541C14.1379 38.7861 14.2739 39.2661 14.5459 39.5941C14.8179 39.9141 15.1779 40.0741 15.6259 40.0741ZM20.632 41.1901C20.392 41.1901 20.208 41.1261 20.08 40.9981C19.952 40.8621 19.888 40.6701 19.888 40.4221V35.8861C19.888 35.6381 19.952 35.4501 20.08 35.3221C20.208 35.1941 20.388 35.1301 20.62 35.1301C20.852 35.1301 21.032 35.1941 21.16 35.3221C21.288 35.4501 21.352 35.6381 21.352 35.8861V36.7621L21.22 36.4021C21.38 36.0021 21.628 35.6861 21.964 35.4541C22.3 35.2221 22.7 35.1061 23.164 35.1061C23.636 35.1061 24.024 35.2181 24.328 35.4421C24.632 35.6661 24.844 36.0101 24.964 36.4741H24.796C24.956 36.0501 25.22 35.7181 25.588 35.4781C25.956 35.2301 26.38 35.1061 26.86 35.1061C27.308 35.1061 27.676 35.1941 27.964 35.3701C28.26 35.5461 28.48 35.8141 28.624 36.1741C28.768 36.5261 28.84 36.9741 28.84 37.5181V40.4221C28.84 40.6701 28.772 40.8621 28.636 40.9981C28.508 41.1261 28.324 41.1901 28.084 41.1901C27.844 41.1901 27.66 41.1261 27.532 40.9981C27.404 40.8621 27.34 40.6701 27.34 40.4221V37.5781C27.34 37.1301 27.264 36.8021 27.112 36.5941C26.968 36.3861 26.72 36.2821 26.368 36.2821C25.976 36.2821 25.668 36.4221 25.444 36.7021C25.22 36.9741 25.108 37.3541 25.108 37.8421V40.4221C25.108 40.6701 25.044 40.8621 24.916 40.9981C24.788 41.1261 24.604 41.1901 24.364 41.1901C24.124 41.1901 23.936 41.1261 23.8 40.9981C23.672 40.8621 23.608 40.6701 23.608 40.4221V37.5781C23.608 37.1301 23.532 36.8021 23.38 36.5941C23.236 36.3861 22.992 36.2821 22.648 36.2821C22.256 36.2821 21.948 36.4221 21.724 36.7021C21.5 36.9741 21.388 37.3541 21.388 37.8421V40.4221C21.388 40.9341 21.136 41.1901 20.632 41.1901ZM33.2794 41.2141C32.6154 41.2141 32.0434 41.0901 31.5634 40.8421C31.0834 40.5941 30.7114 40.2421 30.4474 39.7861C30.1914 39.3301 30.0634 38.7901 30.0634 38.1661C30.0634 37.5581 30.1874 37.0261 30.4354 36.5701C30.6914 36.1141 31.0394 35.7581 31.4794 35.5021C31.9274 35.2381 32.4354 35.1061 33.0034 35.1061C33.4194 35.1061 33.7914 35.1741 34.1194 35.3101C34.4554 35.4461 34.7394 35.6421 34.9714 35.8981C35.2114 36.1541 35.3914 36.4661 35.5114 36.8341C35.6394 37.1941 35.7034 37.6021 35.7034 38.0581C35.7034 38.2021 35.6514 38.3141 35.5474 38.3941C35.4514 38.4661 35.3114 38.5021 35.1274 38.5021H31.2754V37.6381H34.6474L34.4554 37.8181C34.4554 37.4501 34.3994 37.1421 34.2874 36.8941C34.1834 36.6461 34.0274 36.4581 33.8194 36.3301C33.6194 36.1941 33.3674 36.1261 33.0634 36.1261C32.7274 36.1261 32.4394 36.2061 32.1994 36.3661C31.9674 36.5181 31.7874 36.7381 31.6594 37.0261C31.5394 37.3061 31.4794 37.6421 31.4794 38.0341V38.1181C31.4794 38.7741 31.6314 39.2661 31.9354 39.5941C32.2474 39.9141 32.7034 40.0741 33.3034 40.0741C33.5114 40.0741 33.7434 40.0501 33.9994 40.0021C34.2634 39.9461 34.5114 39.8541 34.7434 39.7261C34.9114 39.6301 35.0594 39.5901 35.1874 39.6061C35.3154 39.6141 35.4154 39.6581 35.4874 39.7381C35.5674 39.8181 35.6154 39.9181 35.6314 40.0381C35.6474 40.1501 35.6234 40.2661 35.5594 40.3861C35.5034 40.5061 35.4034 40.6101 35.2594 40.6981C34.9794 40.8741 34.6554 41.0061 34.2874 41.0941C33.9274 41.1741 33.5914 41.2141 33.2794 41.2141Z" fill="white"/>
<path d="M9.17648 9.84796L19.5 1.7742L29.8235 9.84796V22.5353C29.8235 23.1471 29.5818 23.7338 29.1516 24.1664C28.7214 24.599 28.1379 24.8421 27.5294 24.8421H11.4706C10.8622 24.8421 10.2786 24.599 9.84841 24.1664C9.41818 23.7338 9.17648 23.1471 9.17648 22.5353V9.84796Z" stroke="white" stroke-width="2" stroke-linecap="round" stroke-linejoin="round"/>
<path d="M16.0588 24.842V13.3081H22.9412V24.842" stroke="white" stroke-width="2" stroke-linecap="round" stroke-linejoin="round"/>
</svg>
