<svg width="56" height="47" viewBox="0 0 56 47" fill="none" xmlns="http://www.w3.org/2000/svg">
<path d="M34.6682 15.0494C33.7163 16.7451 32.4265 18.4345 31.1076 19.9515C29.8564 21.3816 28.5186 22.7514 27.1 24.0552C25.6813 22.7515 24.3436 21.3816 23.0924 19.9515C21.7735 18.4345 20.4837 16.7451 19.5318 15.0494C18.5689 13.336 18.0167 11.7313 18.0167 10.3548C18.0167 8.23739 18.9737 6.20666 20.6771 4.7094C22.3806 3.21213 24.691 2.37097 27.1 2.37097C29.5091 2.37097 31.8194 3.21213 33.5229 4.7094C35.2263 6.20666 36.1833 8.23739 36.1833 10.3548C36.1833 11.7313 35.6293 13.336 34.6682 15.0494ZM27.1 26.3226C27.1 26.3226 38 17.2433 38 10.3548C38 7.8139 36.8516 5.37703 34.8075 3.58031C32.7633 1.78359 29.9909 0.7742 27.1 0.7742C24.2091 0.7742 21.4367 1.78359 19.3925 3.58031C17.3484 5.37703 16.2 7.8139 16.2 10.3548C16.2 17.2433 27.1 26.3226 27.1 26.3226Z" fill="white"/>
<path d="M27.1 13.5484C26.1364 13.5484 25.2122 13.2119 24.5309 12.613C23.8495 12.0141 23.4667 11.2018 23.4667 10.3548C23.4667 9.50786 23.8495 8.69556 24.5309 8.09666C25.2122 7.49775 26.1364 7.16129 27.1 7.16129C28.0636 7.16129 28.9878 7.49775 29.6692 8.09666C30.3506 8.69556 30.7334 9.50786 30.7334 10.3548C30.7334 11.2018 30.3506 12.0141 29.6692 12.613C28.9878 13.2119 28.0636 13.5484 27.1 13.5484ZM27.1 15.1452C28.5455 15.1452 29.9317 14.6405 30.9538 13.7421C31.9758 12.8437 32.55 11.6253 32.55 10.3548C32.55 9.08436 31.9758 7.86593 30.9538 6.96757C29.9317 6.06921 28.5455 5.56451 27.1 5.56451C25.6546 5.56451 24.2684 6.06921 23.2463 6.96757C22.2242 7.86593 21.65 9.08436 21.65 10.3548C21.65 11.6253 22.2242 12.8437 23.2463 13.7421C24.2684 14.6405 25.6546 15.1452 27.1 15.1452Z" fill="white"/>
<path d="M5.93838 40.4516C5.69038 40.4516 5.49838 40.3836 5.36238 40.2476C5.22638 40.1036 5.15838 39.9076 5.15838 39.6596V32.7356C5.15838 32.4796 5.22238 32.2876 5.35038 32.1596C5.48638 32.0236 5.67838 31.9556 5.92638 31.9556C6.17438 31.9556 6.36238 32.0236 6.49038 32.1596C6.62638 32.2876 6.69438 32.4796 6.69438 32.7356V39.1436H10.1744C10.3904 39.1436 10.5544 39.1996 10.6664 39.3116C10.7864 39.4236 10.8464 39.5836 10.8464 39.7916C10.8464 39.9996 10.7864 40.1636 10.6664 40.2836C10.5544 40.3956 10.3904 40.4516 10.1744 40.4516H5.93838ZM14.3701 40.5716C13.7621 40.5716 13.2341 40.4476 12.7861 40.1996C12.3381 39.9516 11.9901 39.5996 11.7421 39.1436C11.4941 38.6796 11.3701 38.1356 11.3701 37.5116C11.3701 37.0396 11.4381 36.6196 11.5741 36.2516C11.7181 35.8756 11.9221 35.5556 12.1861 35.2916C12.4501 35.0196 12.7661 34.8156 13.1341 34.6796C13.5021 34.5356 13.9141 34.4636 14.3701 34.4636C14.9781 34.4636 15.5061 34.5876 15.9541 34.8356C16.4021 35.0836 16.7501 35.4356 16.9981 35.8916C17.2461 36.3476 17.3701 36.8876 17.3701 37.5116C17.3701 37.9836 17.2981 38.4076 17.1541 38.7836C17.0181 39.1596 16.8181 39.4836 16.5541 39.7556C16.2901 40.0196 15.9741 40.2236 15.6061 40.3676C15.2381 40.5036 14.8261 40.5716 14.3701 40.5716ZM14.3701 39.4316C14.6661 39.4316 14.9261 39.3596 15.1501 39.2156C15.3741 39.0716 15.5461 38.8596 15.6661 38.5796C15.7941 38.2916 15.8581 37.9356 15.8581 37.5116C15.8581 36.8716 15.7221 36.3956 15.4501 36.0836C15.1781 35.7636 14.8181 35.6036 14.3701 35.6036C14.0741 35.6036 13.8141 35.6756 13.5901 35.8196C13.3661 35.9556 13.1901 36.1676 13.0621 36.4556C12.9421 36.7356 12.8821 37.0876 12.8821 37.5116C12.8821 38.1436 13.0181 38.6236 13.2901 38.9516C13.5621 39.2716 13.9221 39.4316 14.3701 39.4316ZM21.3201 40.5716C20.7041 40.5716 20.1681 40.4476 19.7121 40.1996C19.2561 39.9436 18.9041 39.5836 18.6561 39.1196C18.4081 38.6556 18.2841 38.1116 18.2841 37.4876C18.2841 37.0156 18.3521 36.5956 18.4881 36.2276C18.6321 35.8516 18.8361 35.5356 19.1001 35.2796C19.3641 35.0156 19.6841 34.8156 20.0601 34.6796C20.4361 34.5356 20.8561 34.4636 21.3201 34.4636C21.5841 34.4636 21.8681 34.4996 22.1721 34.5716C22.4841 34.6436 22.7761 34.7636 23.0481 34.9316C23.1761 35.0116 23.2601 35.1076 23.3001 35.2196C23.3401 35.3316 23.3481 35.4476 23.3241 35.5676C23.3001 35.6796 23.2481 35.7796 23.1681 35.8676C23.0961 35.9476 23.0041 35.9996 22.8921 36.0236C22.7801 36.0396 22.6561 36.0116 22.5201 35.9396C22.3441 35.8356 22.1641 35.7596 21.9801 35.7116C21.7961 35.6556 21.6201 35.6276 21.4521 35.6276C21.1881 35.6276 20.9561 35.6716 20.7561 35.7596C20.5561 35.8396 20.3841 35.9596 20.2401 36.1196C20.1041 36.2716 20.0001 36.4636 19.9281 36.6956C19.8561 36.9276 19.8201 37.1956 19.8201 37.4996C19.8201 38.0916 19.9601 38.5596 20.2401 38.9036C20.5281 39.2396 20.9321 39.4076 21.4521 39.4076C21.6201 39.4076 21.7921 39.3836 21.9681 39.3356C22.1521 39.2876 22.3361 39.2116 22.5201 39.1076C22.6561 39.0356 22.7761 39.0116 22.8801 39.0356C22.9921 39.0596 23.0841 39.1156 23.1561 39.2036C23.2281 39.2836 23.2721 39.3836 23.2881 39.5036C23.3041 39.6156 23.2881 39.7276 23.2401 39.8396C23.2001 39.9516 23.1201 40.0436 23.0001 40.1156C22.7361 40.2756 22.4561 40.3916 22.1601 40.4636C21.8641 40.5356 21.5841 40.5716 21.3201 40.5716ZM26.1651 40.5716C25.7411 40.5716 25.3611 40.4916 25.0251 40.3316C24.6971 40.1636 24.4371 39.9396 24.2451 39.6596C24.0611 39.3796 23.9691 39.0636 23.9691 38.7116C23.9691 38.2796 24.0811 37.9396 24.3051 37.6916C24.5291 37.4356 24.8931 37.2516 25.3971 37.1396C25.9011 37.0276 26.5771 36.9716 27.4251 36.9716H28.0251V37.8356H27.4371C26.9411 37.8356 26.5451 37.8596 26.2491 37.9076C25.9531 37.9556 25.7411 38.0396 25.6131 38.1596C25.4931 38.2716 25.4331 38.4316 25.4331 38.6396C25.4331 38.9036 25.5251 39.1196 25.7091 39.2876C25.8931 39.4556 26.1491 39.5396 26.4771 39.5396C26.7411 39.5396 26.9731 39.4796 27.1731 39.3596C27.3811 39.2316 27.5451 39.0596 27.6651 38.8436C27.7851 38.6276 27.8451 38.3796 27.8451 38.0996V36.7196C27.8451 36.3196 27.7571 36.0316 27.5811 35.8556C27.4051 35.6796 27.1091 35.5916 26.6931 35.5916C26.4611 35.5916 26.2091 35.6196 25.9371 35.6756C25.6731 35.7316 25.3931 35.8276 25.0971 35.9636C24.9451 36.0356 24.8091 36.0556 24.6891 36.0236C24.5771 35.9916 24.4891 35.9276 24.4251 35.8316C24.3611 35.7276 24.3291 35.6156 24.3291 35.4956C24.3291 35.3756 24.3611 35.2596 24.4251 35.1476C24.4891 35.0276 24.5971 34.9396 24.7491 34.8836C25.1171 34.7316 25.4691 34.6236 25.8051 34.5596C26.1491 34.4956 26.4611 34.4636 26.7411 34.4636C27.3171 34.4636 27.7891 34.5516 28.1571 34.7276C28.5331 34.9036 28.8131 35.1716 28.9971 35.5316C29.1811 35.8836 29.2731 36.3396 29.2731 36.8996V39.7796C29.2731 40.0276 29.2131 40.2196 29.0931 40.3556C28.9731 40.4836 28.8011 40.5476 28.5771 40.5476C28.3531 40.5476 28.1771 40.4836 28.0491 40.3556C27.9291 40.2196 27.8691 40.0276 27.8691 39.7796V39.2036H27.9651C27.9091 39.4836 27.7971 39.7276 27.6291 39.9356C27.4691 40.1356 27.2651 40.2916 27.0171 40.4036C26.7691 40.5156 26.4851 40.5716 26.1651 40.5716ZM33.4836 40.5716C32.9636 40.5716 32.5276 40.4836 32.1756 40.3076C31.8316 40.1316 31.5756 39.8756 31.4076 39.5396C31.2396 39.1956 31.1556 38.7716 31.1556 38.2676V35.7116H30.5316C30.3396 35.7116 30.1916 35.6636 30.0876 35.5676C29.9836 35.4636 29.9316 35.3236 29.9316 35.1476C29.9316 34.9636 29.9836 34.8236 30.0876 34.7276C30.1916 34.6316 30.3396 34.5836 30.5316 34.5836H31.1556V33.4916C31.1556 33.2436 31.2196 33.0556 31.3476 32.9276C31.4836 32.7996 31.6716 32.7356 31.9116 32.7356C32.1516 32.7356 32.3356 32.7996 32.4636 32.9276C32.5916 33.0556 32.6556 33.2436 32.6556 33.4916V34.5836H33.9276C34.1196 34.5836 34.2676 34.6316 34.3716 34.7276C34.4756 34.8236 34.5276 34.9636 34.5276 35.1476C34.5276 35.3236 34.4756 35.4636 34.3716 35.5676C34.2676 35.6636 34.1196 35.7116 33.9276 35.7116H32.6556V38.1836C32.6556 38.5676 32.7396 38.8556 32.9076 39.0476C33.0756 39.2396 33.3476 39.3356 33.7236 39.3356C33.8596 39.3356 33.9796 39.3236 34.0836 39.2996C34.1876 39.2756 34.2796 39.2596 34.3596 39.2516C34.4556 39.2436 34.5356 39.2756 34.5996 39.3476C34.6636 39.4116 34.6956 39.5476 34.6956 39.7556C34.6956 39.9156 34.6676 40.0596 34.6116 40.1876C34.5636 40.3076 34.4716 40.3916 34.3356 40.4396C34.2316 40.4716 34.0956 40.4996 33.9276 40.5236C33.7596 40.5556 33.6116 40.5716 33.4836 40.5716ZM36.2974 40.5356C36.0574 40.5356 35.8734 40.4636 35.7454 40.3196C35.6174 40.1756 35.5534 39.9756 35.5534 39.7196V35.3156C35.5534 35.0516 35.6174 34.8516 35.7454 34.7156C35.8734 34.5716 36.0574 34.4996 36.2974 34.4996C36.5374 34.4996 36.7214 34.5716 36.8494 34.7156C36.9854 34.8516 37.0534 35.0516 37.0534 35.3156V39.7196C37.0534 39.9756 36.9894 40.1756 36.8614 40.3196C36.7334 40.4636 36.5454 40.5356 36.2974 40.5356ZM36.2974 33.3836C36.0174 33.3836 35.7974 33.3156 35.6374 33.1796C35.4854 33.0356 35.4094 32.8396 35.4094 32.5916C35.4094 32.3356 35.4854 32.1396 35.6374 32.0036C35.7974 31.8676 36.0174 31.7996 36.2974 31.7996C36.5854 31.7996 36.8054 31.8676 36.9574 32.0036C37.1094 32.1396 37.1854 32.3356 37.1854 32.5916C37.1854 32.8396 37.1094 33.0356 36.9574 33.1796C36.8054 33.3156 36.5854 33.3836 36.2974 33.3836ZM41.288 40.5716C40.68 40.5716 40.152 40.4476 39.704 40.1996C39.256 39.9516 38.908 39.5996 38.66 39.1436C38.412 38.6796 38.288 38.1356 38.288 37.5116C38.288 37.0396 38.356 36.6196 38.492 36.2516C38.636 35.8756 38.84 35.5556 39.104 35.2916C39.368 35.0196 39.684 34.8156 40.052 34.6796C40.42 34.5356 40.832 34.4636 41.288 34.4636C41.896 34.4636 42.424 34.5876 42.872 34.8356C43.32 35.0836 43.668 35.4356 43.916 35.8916C44.164 36.3476 44.288 36.8876 44.288 37.5116C44.288 37.9836 44.216 38.4076 44.072 38.7836C43.936 39.1596 43.736 39.4836 43.472 39.7556C43.208 40.0196 42.892 40.2236 42.524 40.3676C42.156 40.5036 41.744 40.5716 41.288 40.5716ZM41.288 39.4316C41.584 39.4316 41.844 39.3596 42.068 39.2156C42.292 39.0716 42.464 38.8596 42.584 38.5796C42.712 38.2916 42.776 37.9356 42.776 37.5116C42.776 36.8716 42.64 36.3956 42.368 36.0836C42.096 35.7636 41.736 35.6036 41.288 35.6036C40.992 35.6036 40.732 35.6756 40.508 35.8196C40.284 35.9556 40.108 36.1676 39.98 36.4556C39.86 36.7356 39.8 37.0876 39.8 37.5116C39.8 38.1436 39.936 38.6236 40.208 38.9516C40.48 39.2716 40.84 39.4316 41.288 39.4316ZM46.2701 40.5476C46.0301 40.5476 45.8461 40.4836 45.7181 40.3556C45.5901 40.2196 45.5261 40.0276 45.5261 39.7796V35.2436C45.5261 34.9956 45.5901 34.8076 45.7181 34.6796C45.8461 34.5516 46.0261 34.4876 46.2581 34.4876C46.4901 34.4876 46.6701 34.5516 46.7981 34.6796C46.9261 34.8076 46.9901 34.9956 46.9901 35.2436V36.0596L46.8581 35.7596C47.0341 35.3356 47.3061 35.0156 47.6741 34.7996C48.0501 34.5756 48.4741 34.4636 48.9461 34.4636C49.4181 34.4636 49.8061 34.5516 50.1101 34.7276C50.4141 34.9036 50.6421 35.1716 50.7941 35.5316C50.9461 35.8836 51.0221 36.3316 51.0221 36.8756V39.7796C51.0221 40.0276 50.9581 40.2196 50.8301 40.3556C50.7021 40.4836 50.5181 40.5476 50.2781 40.5476C50.0381 40.5476 49.8501 40.4836 49.7141 40.3556C49.5861 40.2196 49.5221 40.0276 49.5221 39.7796V36.9476C49.5221 36.4916 49.4341 36.1596 49.2581 35.9516C49.0901 35.7436 48.8261 35.6396 48.4661 35.6396C48.0261 35.6396 47.6741 35.7796 47.4101 36.0596C47.1541 36.3316 47.0261 36.6956 47.0261 37.1516V39.7796C47.0261 40.2916 46.7741 40.5476 46.2701 40.5476Z" fill="white"/>
</svg>
