<svg width="25" height="29" viewBox="0 0 25 29" fill="none" xmlns="http://www.w3.org/2000/svg">
<g clip-path="url(#clip0_161_51)">
<path d="M21.0905 1.44091L21.3233 1.17084C21.4986 0.967694 21.7066 0.806569 21.9355 0.69667C22.1644 0.586771 22.4097 0.53025 22.6575 0.530335C22.9052 0.530419 23.1505 0.587106 23.3794 0.697161C23.6082 0.807215 23.8162 0.968481 23.9913 1.17175C24.1664 1.37502 24.3053 1.61631 24.4001 1.88185C24.4948 2.14739 24.5435 2.43198 24.5435 2.71936C24.5434 3.00674 24.4945 3.2913 24.3997 3.55677C24.3048 3.82225 24.1658 4.06344 23.9905 4.26659L23.7577 4.53484C24.156 5.05297 24.3683 5.72818 24.3511 6.42207C24.334 7.11596 24.0887 7.77596 23.6655 8.26678L7.58427 26.9228C7.48374 27.0388 7.35789 27.1209 7.22021 27.1603L0.970208 28.9728C0.839415 29.0106 0.70242 29.0084 0.572541 28.9666C0.442661 28.9248 0.324315 28.8448 0.229006 28.7342C0.133697 28.6236 0.0646677 28.4864 0.028628 28.3357C-0.0074117 28.185 -0.00923575 28.0261 0.0233332 27.8744L1.58583 20.6244C1.62002 20.4653 1.69076 20.32 1.79052 20.2039L16.8561 2.72778C16.7055 2.60477 16.5222 2.54749 16.3386 2.56606C16.1551 2.58463 15.9831 2.67786 15.853 2.82928L10.7093 8.79784C10.6366 8.8821 10.5504 8.94894 10.4555 8.99454C10.3606 9.04014 10.2589 9.06361 10.1561 9.06361C10.0534 9.06361 9.9517 9.04014 9.8568 8.99454C9.76189 8.94894 9.67566 8.8821 9.60302 8.79784C9.53038 8.71359 9.47276 8.61356 9.43345 8.50347C9.39414 8.39337 9.37391 8.27538 9.37391 8.15622C9.37391 8.03706 9.39414 7.91906 9.43345 7.80897C9.47276 7.69888 9.53038 7.59885 9.60302 7.51459L14.7499 1.54784C15.1733 1.05668 15.7427 0.772132 16.3412 0.752584C16.9398 0.733035 17.5221 0.979972 17.9686 1.44272C18.398 0.99764 18.9535 0.751454 19.5293 0.751119C20.1051 0.750785 20.6608 0.996326 21.0905 1.44091ZM20.0843 2.82928C19.9378 2.65939 19.7391 2.56394 19.5319 2.56394C19.3248 2.56394 19.1261 2.65939 18.9796 2.82928L3.04677 21.3077L1.85302 26.8485L6.62958 25.4638L22.5624 6.98534C22.6351 6.90116 22.6929 6.80116 22.7323 6.69106C22.7716 6.58096 22.7919 6.46292 22.7919 6.34372C22.7919 6.22452 22.7716 6.10648 22.7323 5.99638C22.6929 5.88628 22.6351 5.78628 22.5624 5.70209L20.0843 2.82928Z" fill="white"/>
</g>
<defs>
<clipPath id="clip0_161_51">
<rect width="25" height="29" fill="white"/>
</clipPath>
</defs>
</svg>
